<?xml version="1.0" encoding="utf-8"?>
<!-- Generator: Adobe Illustrator 18.1.1, SVG Export Plug-In . SVG Version: 6.00 Build 0)  -->
<svg version="1.1" id="Layer_1" xmlns="http://www.w3.org/2000/svg" xmlns:xlink="http://www.w3.org/1999/xlink" x="0px" y="0px"
	 viewBox="0 0 178 54" style="enable-background:new 0 0 178 54;" xml:space="preserve">
<style type="text/css">
	.st0{fill:#ffffff;}
	.st1{fill:#ffffff;}
</style>
<g>
	<g>
		<path class="st0" d="M71.9,41.6l-0.4,0.7c0,0-0.6-0.4-1.2-0.4c-1.1,0-1.9,1-1.9,2.4c0,1.4,0.8,2.4,1.9,2.4c0.6,0,1.2-0.3,1.2-0.4
			l0.4,0.8c-0.3,0.2-0.9,0.5-1.6,0.5c-1.6,0-2.9-1.3-2.9-3.2c0-2,1.3-3.2,2.9-3.2C70.9,41.1,71.5,41.4,71.9,41.6z"/>
		<path class="st0" d="M74.7,41.2v5.4h2.6v0.9h-3.6v-6.3H74.7z"/>
		<path class="st0" d="M81.5,41.2l1.8,6.3h-1l-0.5-1.6h-2l-0.5,1.6h-1l1.8-6.3H81.5z M80.1,45.1h1.6l-0.8-2.9h0L80.1,45.1z"/>
		<path class="st0" d="M84.7,47.2l0.3-0.8c0.2,0.1,0.7,0.4,1.4,0.4c0.9,0,1.2-0.4,1.2-0.9c0-1.3-2.9-0.8-2.9-3
			c0-1.2,0.8-1.7,1.9-1.7c0.7,0,1.3,0.2,1.7,0.4l-0.3,0.8c-0.1,0-0.6-0.3-1.3-0.3c-0.7,0-1.1,0.4-1.1,0.8c0,1.3,2.9,0.8,2.9,3
			c0,1.3-0.9,1.8-2,1.8C85.8,47.6,85.1,47.4,84.7,47.2z"/>
		<path class="st0" d="M90.1,47.2l0.3-0.8c0.2,0.1,0.7,0.4,1.4,0.4c0.9,0,1.2-0.4,1.2-0.9c0-1.3-2.9-0.8-2.9-3
			c0-1.2,0.8-1.7,1.9-1.7c0.7,0,1.3,0.2,1.7,0.4l-0.3,0.8c-0.1,0-0.6-0.3-1.3-0.3c-0.7,0-1.1,0.4-1.1,0.8c0,1.3,2.9,0.8,2.9,3
			c0,1.3-0.9,1.8-2,1.8C91.2,47.6,90.5,47.4,90.1,47.2z"/>
		<path class="st0" d="M96.9,41.2v6.3h-1v-6.3H96.9z"/>
		<path class="st0" d="M103.3,41.6l-0.4,0.7c0,0-0.6-0.4-1.2-0.4c-1.1,0-1.9,1-1.9,2.4c0,1.4,0.8,2.4,1.9,2.4c0.6,0,1.2-0.3,1.2-0.4
			l0.4,0.8c-0.3,0.2-0.9,0.5-1.6,0.5c-1.6,0-2.9-1.3-2.9-3.2c0-2,1.3-3.2,2.9-3.2C102.4,41.1,103,41.4,103.3,41.6z"/>
		<path class="st0" d="M110.4,41.2l1.8,6.3h-1l-0.5-1.6h-2l-0.4,1.6h-1l1.8-6.3H110.4z M108.9,45.1h1.6l-0.8-2.9h0L108.9,45.1z"/>
		<path class="st0" d="M114.7,41.2v4.2c0,0.8,0.5,1.3,1.2,1.3c0.7,0,1.2-0.5,1.2-1.3v-4.2h1v4.2c0,1.3-0.8,2.2-2.1,2.2
			c-1.4,0-2.1-1-2.1-2.2v-4.2H114.7z"/>
		<path class="st0" d="M124,41.2v0.8h-1.7v5.5h-1v-5.5h-1.7v-0.8H124z"/>
		<path class="st0" d="M127.9,41.1c1.7,0,2.8,1.4,2.8,3.2c0,1.8-1,3.2-2.8,3.2c-1.8,0-2.8-1.4-2.8-3.2
			C125.1,42.5,126.2,41.1,127.9,41.1z M127.9,46.7c1.1,0,1.8-1,1.8-2.4c0-1.3-0.7-2.4-1.8-2.4c-1.1,0-1.8,1-1.8,2.4
			C126.1,45.8,126.8,46.7,127.9,46.7z"/>
		<path class="st0" d="M132.2,47.2l0.3-0.8c0.2,0.1,0.7,0.4,1.4,0.4c0.9,0,1.2-0.4,1.2-0.9c0-1.3-2.9-0.8-2.9-3
			c0-1.2,0.8-1.7,1.9-1.7c0.7,0,1.3,0.2,1.7,0.4l-0.3,0.8c-0.1,0-0.6-0.3-1.3-0.3c-0.7,0-1.1,0.4-1.1,0.8c0,1.3,2.9,0.8,2.9,3
			c0,1.3-0.9,1.8-2,1.8C133.3,47.6,132.7,47.4,132.2,47.2z"/>
	</g>
	<g>
		<g>
			<path class="st1" d="M171.2,14.9v-3.4h-1.3v-0.5h3v0.5h-1.3v3.4H171.2z"/>
			<path class="st1" d="M173.7,14.9v-3.8h0.8l0.9,2.7c0.1,0.3,0.1,0.4,0.2,0.6c0-0.1,0.1-0.3,0.2-0.6l0.9-2.6h0.7v3.8h-0.5v-3.2
				l-1.1,3.2h-0.5l-1.1-3.2v3.2H173.7z"/>
		</g>
		<g>
			<path class="st1" d="M62.4,11H70c0,0,3.5,16.3,3.7,18.1c0.2-1.6,4.6-18.1,4.6-18.1h9c0,0,3.7,14.3,4.3,18c0.2-1.4,3.7-18,3.7-18
				h7.5l-5.9,24.5H86.5c0,0-3.5-15-3.9-17.4c-0.2,2.2-3.9,17.4-3.9,17.4H68.3L62.4,11z"/>
			<path class="st1" d="M133.3,11v5.5h-19v4H132v5.6h-17.8V30h19.4v5.6h-28.2V11H133.3z"/>
			<path class="st1" d="M137.9,11h22.5c1.7,0,4,0.1,5.7,1.3c1.8,1.3,2.1,3.4,2.1,4.5c0,3.1-1.7,4.8-4.7,5.5c1.5,0.2,3.2,0.5,4.6,1.9
				c1,1.1,1.4,2.4,1.4,4.1c0,3.4-2,5.4-4.4,6.3c-2,0.8-4.4,0.9-6.3,0.9h-20.8V11z M146.7,29.9h10.9c0.9,0,1.5,0,1.9-0.2
				c1.1-0.4,1.4-1.3,1.4-2.1c0-0.9-0.5-1.6-1.2-1.8c-0.6-0.2-1.1-0.2-2.2-0.2h-10.7V29.9z M146.7,20.3H157c1.3,0,1.6-0.1,1.8-0.2
				c0.7-0.2,1.1-0.8,1.1-1.8c0-0.7-0.3-1.2-1.1-1.6c-0.3-0.2-0.9-0.2-1.8-0.2h-10.3V20.3z"/>
		</g>
	</g>
	<g>
		<g>
			<path class="st1" d="M31.8,25.1l9.6-1c-0.1-0.1-0.1-0.1-0.2-0.2c-1-1.1-2-2.6-2.9-4.2c-0.7-1.2-1.3-2.5-1.6-3.7l-5.7,7.7
				c0.1,0.1,0.1,0.3,0.2,0.5C31.4,24.6,31.6,24.9,31.8,25.1z"/>
			<path class="st1" d="M28.9,22.3l3.9-8.8c-0.1,0-0.1,0-0.2,0.1c-1.4,0.3-3.2,0.5-5.1,0.4c-1.4,0-2.8-0.2-4-0.4l3.8,8.8
				c0.2,0,0.3,0,0.5,0C28.2,22.4,28.6,22.4,28.9,22.3z"/>
			<path class="st1" d="M25,23.5l-5.7-7.8c0,0.1,0,0.1-0.1,0.2c-0.4,1.4-1.2,3-2.1,4.6c-0.7,1.2-1.5,2.4-2.4,3.3l9.5,1.2
				c0.1-0.1,0.2-0.3,0.3-0.4C24.7,24.1,24.9,23.8,25,23.5z"/>
			<path class="st1" d="M24,27.4l-9.6,1c0.1,0.1,0.1,0.1,0.2,0.2c1,1.1,2,2.6,2.9,4.2c0.7,1.2,1.3,2.5,1.6,3.7l5.7-7.7
				c-0.1-0.1-0.1-0.3-0.2-0.5C24.4,28,24.2,27.7,24,27.4z"/>
			<path class="st1" d="M27,30.2l-3.9,8.8c0.1,0,0.1,0,0.2-0.1c1.4-0.3,3.2-0.5,5.1-0.4c1.4,0,2.8,0.2,4,0.4l-3.8-8.8
				c-0.2,0-0.3,0-0.5,0C27.6,30.2,27.2,30.2,27,30.2z"/>
			<path class="st1" d="M30.8,29.1l5.7,7.8c0-0.1,0-0.1,0.1-0.2c0.4-1.4,1.2-3,2.2-4.6c0.7-1.2,1.5-2.4,2.4-3.3l-9.5-1.2
				c-0.1,0.1-0.2,0.3-0.3,0.4C31.1,28.5,31,28.8,30.8,29.1z"/>
		</g>
		<g>
			<path class="st0" d="M46.4,23.3l9.4-1c-0.2-0.2-0.5-0.5-0.7-0.7c-1.9-2-4-5-5.7-8.1c-1.6-2.9-3-6-3.6-8.7l-5.9,7.8
				c0.2,1,0.7,2.8,2,5.2C43.8,21,45.6,22.9,46.4,23.3z"/>
			<path class="st0" d="M34.6,8.8l3.8-8.7c-0.3,0.1-0.6,0.2-1,0.2c-2.7,0.6-6.3,0.9-9.9,0.9c-3.3,0-6.7-0.4-9.3-1.2L22,9
				c1,0.4,2.8,0.8,5.5,0.8C31.3,9.9,33.9,9.3,34.6,8.8z"/>
			<path class="st0" d="M16.1,11.8l-5.6-7.7c-0.1,0.3-0.2,0.6-0.3,1C9.4,7.7,7.8,11,6,14.1c-1.7,2.8-3.7,5.6-5.7,7.5l9.7,1.2
				c0.8-0.7,2.1-2,3.5-4.4C15.4,15.1,16.1,12.6,16.1,11.8z"/>
			<path class="st0" d="M9.4,29.3l-9.4,1c0.2,0.2,0.4,0.5,0.7,0.7c1.9,2,4,5,5.7,8.1c1.6,2.9,3,6,3.6,8.7l5.9-7.8
				c-0.2-1-0.7-2.8-2-5.2C12,31.6,10.2,29.6,9.4,29.3z"/>
			<path class="st0" d="M21.3,43.8l-3.8,8.7c0.3-0.1,0.6-0.2,1-0.2c2.7-0.6,6.3-0.9,9.9-0.9c3.3,0,6.7,0.4,9.3,1.2l-3.8-9
				c-1-0.4-2.8-0.8-5.5-0.8C24.5,42.7,21.9,43.3,21.3,43.8z"/>
			<path class="st0" d="M39.7,40.8l5.6,7.7c0.1-0.3,0.2-0.6,0.3-0.9c0.8-2.6,2.4-5.9,4.2-9c1.7-2.8,3.7-5.6,5.7-7.5l-9.7-1.2
				c-0.8,0.7-2.1,2-3.5,4.4C40.4,37.4,39.7,40,39.7,40.8z"/>
		</g>
	</g>
</g>
</svg>
